# xmcd CD database file
#
# Track frame offsets:
#	225
#	38216
#	120313
#	168034
#	203062
#
# Disc length: 3934 seconds
#
# Revision: 0
# Processed by: cddbd v1.5.1PL0 Copyright (c) Steve Scherf et al.
# Submitted via: CDex 1.51
#
DISCID=340f5b05
DTITLE=Liebig Vatcher Golia - on the cusp of fire and water
DYEAR=2004
DGENRE=Jazz
TTITLE0=flurries
TTITLE1=prelude
TTITLE2=aftermath
TTITLE3=transit
TTITLE4=undertow
EXTD=YEAR: 2004
EXTT0=
EXTT1=
EXTT2=
EXTT3=
EXTT4=
PLAYORDER=
